# xmcd
#
# Track frame offsets: 
#        151
#        15195
#        26363
#        42326
#        56474
#        69989
#        89497
#        109725
#        130020
#        145148
#        165009
#        177202
#        191622
#        215191
#        244047
#
# Disc length: 3474 seconds
#
# Revision: 0
# Processed by: cddbd v1.5.2PL0 Copyright (c) Steve Scherf et al.
# Submitted via: ExactAudioCopy v0.99pb5
#
DISCID=be0d900f
DTITLE=The Ceili House Band - Wall of Sound
DYEAR=1900
DGENRE=Celtic
TTITLE0=Lads of Laois, Gravel Walk, Glass of Beer
TTITLE1=Star of the County Down
TTITLE2=Tommy Whelan's, Lark in the Morning
TTITLE3=Rock and the Wee Pickle Tow
TTITLE4=Star of Munster, Reconciliation
TTITLE5=Back Home in Derry
TTITLE6=Mountain Dew set
TTITLE7=Lilting Banshee, Kesh, Pull the Knife and Stick it Again, Batter
TTITLE7=ing Ram
TTITLE8=For Sake of Old Decency, Humors of Tulla, Sally Gardens
TTITLE9=Paddy's Green Shamrock Shore, Frieze Britches
TTITLE10=Frank Roche's, Mrs. McLeod's
TTITLE11=Dunmore Lasses
TTITLE12=Parting Glass, Plough and the Stars, Bucks of Oranmore
TTITLE13=Rebel Suite
TTITLE14=The Thing
EXTD=
EXTT0=
EXTT1=
EXTT2=
EXTT3=
EXTT4=
EXTT5=
EXTT6=
EXTT7=
EXTT8=
EXTT9=
EXTT10=
EXTT11=
EXTT12=
EXTT13=
EXTT14=
PLAYORDER=
